<svg width="48" height="60" viewBox="0 0 48 60" fill="none" xmlns="http://www.w3.org/2000/svg">
<g clip-path="url(#clip0)">
<path d="M45 41.25H42.75V27.0825C42.75 27.0825 42.75 27.0825 42.75 27.0375V24C42.75 23.8011 42.671 23.6103 42.5303 23.4697C42.3897 23.329 42.1989 23.25 42 23.25H30.75V17.25C30.75 17.0511 30.671 16.8603 30.5303 16.7197C30.3897 16.579 30.1989 16.5 30 16.5H18C17.8011 16.5 17.6103 16.579 17.4697 16.7197C17.329 16.8603 17.25 17.0511 17.25 17.25V27.75H6C5.80109 27.75 5.61032 27.829 5.46967 27.9697C5.32902 28.1103 5.25 28.3011 5.25 28.5V41.25H3C2.80109 41.25 2.61032 41.329 2.46967 41.4697C2.32902 41.6103 2.25 41.8011 2.25 42C2.25 42.1989 2.32902 42.3897 2.46967 42.5303C2.61032 42.671 2.80109 42.75 3 42.75H45C45.1989 42.75 45.3897 42.671 45.5303 42.5303C45.671 42.3897 45.75 42.1989 45.75 42C45.75 41.8011 45.671 41.6103 45.5303 41.4697C45.3897 41.329 45.1989 41.25 45 41.25ZM41.25 24.75V26.25H30.75V24.75H41.25ZM18.75 18H29.25V19.5H18.75V18ZM17.25 29.25V30.6825H6.75V29.25H17.25ZM6.75 32.25H17.25V41.25H6.75V32.25ZM18.75 31.5V21H29.25V41.25H18.75V31.5ZM30.75 41.25V27.8325H41.25V41.25H30.75Z" fill="#3A3A3A"/>
<path d="M17.25 6.75H18.75V13.5C18.75 13.6989 18.829 13.8897 18.9697 14.0303C19.1103 14.171 19.3011 14.25 19.5 14.25H27.75C27.9489 14.25 28.1397 14.171 28.2803 14.0303C28.421 13.8897 28.5 13.6989 28.5 13.5V9.75C28.5008 9.56225 28.4311 9.38104 28.3047 9.24218C28.1783 9.10331 28.0045 9.0169 27.8175 9L20.25 8.3175V6C20.25 5.80109 20.171 5.61032 20.0303 5.46967C19.8897 5.32902 19.6989 5.25 19.5 5.25H17.25C17.0511 5.25 16.8603 5.32902 16.7197 5.46967C16.579 5.61032 16.5 5.80109 16.5 6C16.5 6.19891 16.579 6.38968 16.7197 6.53033C16.8603 6.67098 17.0511 6.75 17.25 6.75ZM27 12.75H20.25V9.825L27 10.4325V12.75Z" fill="#3A3A3A"/>
<path d="M21.0002 15.75C20.9998 15.6508 20.9797 15.5526 20.9411 15.4612C20.9025 15.3698 20.8461 15.287 20.7752 15.2175C20.6876 15.1306 20.58 15.0667 20.4618 15.0314C20.3436 14.9961 20.2186 14.9905 20.0977 15.015C19.9768 15.0396 19.8639 15.0936 19.7689 15.1722C19.6739 15.2509 19.5997 15.3517 19.553 15.4659C19.5062 15.58 19.4884 15.7039 19.501 15.8266C19.5136 15.9493 19.5563 16.067 19.6252 16.1693C19.6942 16.2715 19.7873 16.3552 19.8963 16.4129C20.0053 16.4706 20.1269 16.5005 20.2502 16.5C20.4491 16.5 20.6399 16.421 20.7805 16.2803C20.9212 16.1397 21.0002 15.9489 21.0002 15.75Z" fill="#3A3A3A"/>
<path d="M27.6225 16.1625C27.6522 16.1242 27.675 16.0811 27.69 16.035C27.7128 15.9903 27.728 15.9422 27.735 15.8925C27.7437 15.8455 27.7487 15.7978 27.75 15.75C27.7493 15.627 27.7183 15.506 27.6598 15.3978C27.6013 15.2896 27.5171 15.1974 27.4146 15.1294C27.3121 15.0614 27.1944 15.0196 27.072 15.0078C26.9495 14.996 26.826 15.0145 26.7124 15.0617C26.5988 15.1089 26.4985 15.1833 26.4204 15.2783C26.3423 15.3734 26.2889 15.4862 26.2647 15.6068C26.2405 15.7275 26.2463 15.8522 26.2817 15.97C26.317 16.0878 26.3809 16.1952 26.4675 16.2825C26.5372 16.3528 26.6202 16.4086 26.7116 16.4467C26.8029 16.4847 26.901 16.5044 27 16.5044C27.099 16.5044 27.197 16.4847 27.2884 16.4467C27.3798 16.4086 27.4628 16.3528 27.5325 16.2825L27.6225 16.1625Z" fill="#3A3A3A"/>
</g>
<defs>
<clipPath id="clip0">
<rect width="48" height="60" fill="white"/>
</clipPath>
</defs>
</svg>
