<svg width="48" height="60" viewBox="0 0 48 60" fill="none" xmlns="http://www.w3.org/2000/svg">
<g clip-path="url(#clip0)">
<path d="M13.125 45.75H34.125C34.6175 45.75 35.1051 45.653 35.5601 45.4645C36.015 45.2761 36.4284 44.9999 36.7766 44.6516C37.1249 44.3034 37.4011 43.89 37.5895 43.4351C37.778 42.9801 37.875 42.4925 37.875 42V15.75C38.0739 15.75 38.2647 15.671 38.4053 15.5303C38.546 15.3897 38.625 15.1989 38.625 15V10.5C38.625 10.3011 38.546 10.1103 38.4053 9.96967C38.2647 9.82902 38.0739 9.75 37.875 9.75V6C37.875 5.50754 37.778 5.01991 37.5895 4.56494C37.4011 4.10997 37.1249 3.69657 36.7766 3.34835C36.4284 3.00013 36.015 2.72391 35.5601 2.53545C35.1051 2.347 34.6175 2.25 34.125 2.25H13.125C12.1304 2.25 11.1766 2.64509 10.4733 3.34835C9.77009 4.05161 9.375 5.00544 9.375 6V42C9.375 42.9946 9.77009 43.9484 10.4733 44.6516C11.1766 45.3549 12.1304 45.75 13.125 45.75ZM25.32 3.75C24.9912 4.02732 24.6829 4.32811 24.3975 4.65C23.9925 5.0925 23.8275 5.25 23.6475 5.25C23.4675 5.25 23.28 5.0925 22.8975 4.65C22.5977 4.32645 22.2743 4.02562 21.93 3.75H25.32ZM10.875 6C10.875 5.40326 11.1121 4.83097 11.534 4.40901C11.956 3.98705 12.5283 3.75 13.125 3.75H17.625C18.5406 3.7458 19.4429 3.97007 20.25 4.4025C20.8195 4.7289 21.3272 5.15285 21.75 5.655C21.96 5.96688 22.2376 6.22733 22.5623 6.41692C22.8869 6.60652 23.2502 6.72038 23.625 6.75C23.9998 6.72038 24.3631 6.60652 24.6877 6.41692C25.0124 6.22733 25.29 5.96688 25.5 5.655C25.9228 5.15285 26.4305 4.7289 27 4.4025C27.8094 3.96886 28.7143 3.74455 29.6325 3.75H34.1325C34.7292 3.75 35.3015 3.98705 35.7235 4.40901C36.1454 4.83097 36.3825 5.40326 36.3825 6V42C36.3825 42.5967 36.1454 43.169 35.7235 43.591C35.3015 44.0129 34.7292 44.25 34.1325 44.25H13.1325C12.5358 44.25 11.9635 44.0129 11.5415 43.591C11.1196 43.169 10.8825 42.5967 10.8825 42L10.875 6Z" fill="#3A3A3A"/>
<path d="M23.9101 41.31C23.7735 41.2525 23.6229 41.2369 23.4774 41.2649C23.332 41.2929 23.198 41.3634 23.0926 41.4675C22.9555 41.6112 22.8778 41.8014 22.8751 42C22.8739 42.0975 22.8917 42.1943 22.9276 42.285C22.9693 42.3756 23.0249 42.4591 23.0926 42.5325L23.2051 42.6225L23.3401 42.69C23.3826 42.7116 23.4281 42.7268 23.4751 42.735H23.6251C23.8236 42.7322 24.0138 42.6545 24.1576 42.5175C24.2258 42.4462 24.2794 42.362 24.3151 42.27C24.3516 42.1845 24.372 42.0929 24.3751 42C24.3723 41.8014 24.2946 41.6112 24.1576 41.4675C24.0847 41.4012 24.0009 41.348 23.9101 41.31Z" fill="#3A3A3A"/>
<path d="M12.375 40.5H34.875C35.0739 40.5 35.2647 40.421 35.4053 40.2803C35.546 40.1397 35.625 39.9489 35.625 39.75C35.625 39.5511 35.546 39.3603 35.4053 39.2197C35.2647 39.079 35.0739 39 34.875 39H12.375C12.1761 39 11.9853 39.079 11.8447 39.2197C11.704 39.3603 11.625 39.5511 11.625 39.75C11.625 39.9489 11.704 40.1397 11.8447 40.2803C11.9853 40.421 12.1761 40.5 12.375 40.5Z" fill="#3A3A3A"/>
<path d="M16.875 15H18.375V24C18.375 24.1989 18.454 24.3897 18.5947 24.5303C18.7353 24.671 18.9261 24.75 19.125 24.75H30.375C30.5739 24.75 30.7647 24.671 30.9053 24.5303C31.046 24.3897 31.125 24.1989 31.125 24V19.1775C31.1256 18.9886 31.0549 18.8064 30.927 18.6673C30.799 18.5283 30.6233 18.4426 30.435 18.4275L19.875 17.5275V14.25C19.875 14.0511 19.796 13.8603 19.6553 13.7197C19.5147 13.579 19.3239 13.5 19.125 13.5H16.875C16.6761 13.5 16.4853 13.579 16.3447 13.7197C16.204 13.8603 16.125 14.0511 16.125 14.25C16.125 14.4489 16.204 14.6397 16.3447 14.7803C16.4853 14.921 16.6761 15 16.875 15ZM29.625 19.8675V23.25H19.875V19.035L29.625 19.8675Z" fill="#3A3A3A"/>
<path d="M18.375 27.75C18.375 28.195 18.507 28.63 18.7542 29C19.0014 29.37 19.3528 29.6584 19.764 29.8287C20.1751 29.999 20.6275 30.0436 21.064 29.9568C21.5004 29.8699 21.9013 29.6557 22.216 29.341C22.5307 29.0263 22.745 28.6254 22.8318 28.189C22.9186 27.7525 22.874 27.3001 22.7037 26.889C22.5334 26.4778 22.245 26.1264 21.875 25.8792C21.505 25.632 21.07 25.5 20.625 25.5C20.0283 25.5 19.456 25.7371 19.034 26.159C18.6121 26.581 18.375 27.1533 18.375 27.75ZM21.375 27.75C21.375 27.8983 21.331 28.0433 21.2486 28.1667C21.1662 28.29 21.0491 28.3861 20.912 28.4429C20.775 28.4997 20.6242 28.5145 20.4787 28.4856C20.3332 28.4566 20.1996 28.3852 20.0947 28.2803C19.9898 28.1754 19.9184 28.0418 19.8894 27.8963C19.8605 27.7508 19.8753 27.6 19.9321 27.463C19.9889 27.3259 20.085 27.2088 20.2083 27.1264C20.3317 27.044 20.4767 27 20.625 27C20.8239 27 21.0147 27.079 21.1553 27.2197C21.296 27.3603 21.375 27.5511 21.375 27.75Z" fill="#3A3A3A"/>
<path d="M28.875 25.5C28.43 25.5 27.995 25.632 27.625 25.8792C27.255 26.1264 26.9666 26.4778 26.7963 26.889C26.626 27.3001 26.5814 27.7525 26.6682 28.189C26.7551 28.6254 26.9693 29.0263 27.284 29.341C27.5987 29.6557 27.9996 29.8699 28.436 29.9568C28.8725 30.0436 29.3249 29.999 29.736 29.8287C30.1472 29.6584 30.4986 29.37 30.7458 29C30.993 28.63 31.125 28.195 31.125 27.75C31.125 27.1533 30.8879 26.581 30.466 26.159C30.044 25.7371 29.4717 25.5 28.875 25.5ZM28.875 28.5C28.7267 28.5 28.5817 28.456 28.4583 28.3736C28.335 28.2912 28.2389 28.1741 28.1821 28.037C28.1253 27.9 28.1105 27.7492 28.1394 27.6037C28.1684 27.4582 28.2398 27.3246 28.3447 27.2197C28.4496 27.1148 28.5832 27.0433 28.7287 27.0144C28.8742 26.9855 29.025 27.0003 29.162 27.0571C29.2991 27.1139 29.4162 27.21 29.4986 27.3333C29.581 27.4567 29.625 27.6017 29.625 27.75C29.625 27.9489 29.546 28.1397 29.4053 28.2803C29.2647 28.421 29.0739 28.5 28.875 28.5Z" fill="#3A3A3A"/>
</g>
<defs>
<clipPath id="clip0">
<rect width="48" height="60" fill="white"/>
</clipPath>
</defs>
</svg>
