<svg width="48" height="60" viewBox="0 0 48 60" fill="none" xmlns="http://www.w3.org/2000/svg">
<g clip-path="url(#clip0)">
<path d="M7.16992 24C7.16992 27.4117 8.18162 30.7468 10.0771 33.5836C11.9725 36.4203 14.6666 38.6313 17.8186 39.9369C20.9707 41.2425 24.4391 41.5841 27.7852 40.9185C31.1314 40.253 34.2051 38.61 36.6175 36.1976C39.03 33.7851 40.6729 30.7115 41.3385 27.3653C42.0041 24.0191 41.6625 20.5507 40.3568 17.3987C39.0512 14.2467 36.8403 11.5526 34.0035 9.65715C31.1668 7.76169 27.8317 6.75 24.4199 6.75C19.8449 6.75 15.4573 8.56741 12.2223 11.8024C8.98733 15.0374 7.16992 19.425 7.16992 24ZM24.4199 8.25C27.535 8.25 30.5801 9.17372 33.1702 10.9044C35.7602 12.635 37.7789 15.0948 38.971 17.9727C40.1631 20.8507 40.475 24.0175 39.8673 27.0727C39.2596 30.1279 37.7595 32.9343 35.5569 35.1369C33.3542 37.3396 30.5478 38.8397 27.4926 39.4474C24.4374 40.0551 21.2706 39.7432 18.3927 38.5511C15.5147 37.359 13.0549 35.3403 11.3243 32.7502C9.59364 30.1602 8.66992 27.1151 8.66992 24C8.66992 19.8228 10.3293 15.8168 13.283 12.8631C16.2367 9.90937 20.2428 8.25 24.4199 8.25Z" fill="#3A3A3A"/>
<path d="M24.4198 3C24.2209 3 24.0301 3.07902 23.8894 3.21967C23.7488 3.36032 23.6698 3.55109 23.6698 3.75C23.6698 3.94891 23.7488 4.13968 23.8894 4.28033C24.0301 4.42098 24.2209 4.5 24.4198 4.5C28.1411 4.50068 31.7845 5.56616 34.9198 7.57063C38.0551 9.5751 40.5514 12.4349 42.114 15.8122C43.6765 19.1896 44.24 22.9436 43.7379 26.6308C43.2359 30.3181 41.6892 33.7848 39.2806 36.6214C36.8719 39.4581 33.7019 41.5463 30.1448 42.6396C26.5877 43.7328 22.7921 43.7854 19.206 42.7911C15.62 41.7968 12.3934 39.7972 9.90711 37.0283C7.42084 34.2594 5.77876 30.837 5.17477 27.165L6.29977 27.0675L4.16227 24L2.57227 27.3825L3.67477 27.2925C4.30387 31.2554 6.05515 34.9551 8.72133 37.9537C11.3875 40.9524 14.857 43.1244 18.7191 44.2128C22.5812 45.3011 26.6742 45.2602 30.5138 44.0949C34.3534 42.9296 37.7787 40.6887 40.3845 37.6374C42.9902 34.586 44.6672 30.8521 45.217 26.8774C45.7668 22.9027 45.1663 18.8537 43.4868 15.2097C41.8072 11.5656 39.1187 8.47898 35.7396 6.31516C32.3606 4.15134 28.4323 3.0009 24.4198 3Z" fill="#3A3A3A"/>
<path d="M24.4199 24.75H34.1699C34.3688 24.75 34.5596 24.671 34.7003 24.5303C34.8409 24.3897 34.9199 24.1989 34.9199 24C34.9199 23.8011 34.8409 23.6103 34.7003 23.4697C34.5596 23.329 34.3688 23.25 34.1699 23.25H25.1699V11.25C25.1699 11.0511 25.0909 10.8603 24.9503 10.7197C24.8096 10.579 24.6188 10.5 24.4199 10.5C24.221 10.5 24.0302 10.579 23.8896 10.7197C23.7489 10.8603 23.6699 11.0511 23.6699 11.25V24C23.6699 24.1989 23.7489 24.3897 23.8896 24.5303C24.0302 24.671 24.221 24.75 24.4199 24.75Z" fill="#3A3A3A"/>
</g>
<defs>
<clipPath id="clip0">
<rect width="48" height="60" fill="white"/>
</clipPath>
</defs>
</svg>
