<svg width="48" height="60" viewBox="0 0 48 60" fill="none" xmlns="http://www.w3.org/2000/svg">
<g clip-path="url(#clip0)">
<path d="M45.4125 23.0025L40.9125 20.0025C40.7905 19.9205 40.647 19.8761 40.5 19.875H35.25V8.625C35.25 8.42609 35.171 8.23532 35.0303 8.09467C34.8897 7.95402 34.6989 7.875 34.5 7.875H3C2.80109 7.875 2.61032 7.95402 2.46967 8.09467C2.32902 8.23532 2.25 8.42609 2.25 8.625V34.875C2.25 35.0739 2.32902 35.2647 2.46967 35.4053C2.61032 35.546 2.80109 35.625 3 35.625H6.06C6.24923 36.8659 6.8768 37.9979 7.82894 38.8159C8.78108 39.6338 9.99477 40.0835 11.25 40.0835C12.5052 40.0835 13.7189 39.6338 14.6711 38.8159C15.6232 37.9979 16.2508 36.8659 16.44 35.625H31.56C31.7492 36.8659 32.3768 37.9979 33.3289 38.8159C34.2811 39.6338 35.4948 40.0835 36.75 40.0835C38.0052 40.0835 39.2189 39.6338 40.1711 38.8159C41.1232 37.9979 41.7508 36.8659 41.94 35.625H45C45.1989 35.625 45.3897 35.546 45.5303 35.4053C45.671 35.2647 45.75 35.0739 45.75 34.875V23.625C45.7494 23.5015 45.7182 23.38 45.6593 23.2714C45.6005 23.1628 45.5157 23.0704 45.4125 23.0025ZM33.75 10.875H23.25V9.375H33.75V10.875ZM21.75 9.375V10.875H15.75V9.375H21.75ZM15.75 12.375H21.75V16.125H15.75V12.375ZM3.75 9.375H14.25V10.875H3.75V9.375ZM3.75 12.375H14.25V16.875C14.25 17.0739 14.329 17.2647 14.4697 17.4053C14.6103 17.546 14.8011 17.625 15 17.625H22.5C22.6989 17.625 22.8897 17.546 23.0303 17.4053C23.171 17.2647 23.25 17.0739 23.25 16.875V12.375H33.75V30.57C33.1612 30.9813 32.6631 31.5089 32.2864 32.1204C31.9097 32.7319 31.6625 33.4142 31.56 34.125H16.44C16.2508 32.8841 15.6232 31.7521 14.6711 30.9341C13.7189 30.1162 12.5052 29.6665 11.25 29.6665C9.99477 29.6665 8.78108 30.1162 7.82894 30.9341C6.8768 31.7521 6.24923 32.8841 6.06 34.125H3.75V12.375ZM11.25 38.625C10.5083 38.625 9.7833 38.4051 9.16661 37.993C8.54993 37.581 8.06928 36.9953 7.78545 36.3101C7.50162 35.6248 7.42736 34.8708 7.57205 34.1434C7.71675 33.416 8.0739 32.7478 8.59835 32.2234C9.1228 31.6989 9.79098 31.3417 10.5184 31.1971C11.2458 31.0524 11.9998 31.1266 12.6851 31.4105C13.3703 31.6943 13.956 32.1749 14.368 32.7916C14.7801 33.4083 15 34.1333 15 34.875C15 35.8696 14.6049 36.8234 13.9017 37.5266C13.1984 38.2299 12.2446 38.625 11.25 38.625ZM36.75 38.625C36.0083 38.625 35.2833 38.4051 34.6666 37.993C34.0499 37.581 33.5693 36.9953 33.2855 36.3101C33.0016 35.6248 32.9274 34.8708 33.0721 34.1434C33.2167 33.416 33.5739 32.7478 34.0984 32.2234C34.6228 31.6989 35.291 31.3417 36.0184 31.1971C36.7458 31.0524 37.4998 31.1266 38.1851 31.4105C38.8703 31.6943 39.456 32.1749 39.868 32.7916C40.2801 33.4083 40.5 34.1333 40.5 34.875C40.5 35.8696 40.1049 36.8234 39.4016 37.5266C38.6984 38.2299 37.7446 38.625 36.75 38.625ZM44.25 34.125H41.94C41.7598 32.8766 41.1361 31.7347 40.1831 30.9084C39.2301 30.0821 38.0114 29.6265 36.75 29.625C36.2423 29.6273 35.7374 29.7005 35.25 29.8425V21.375H40.275L44.25 24V34.125Z" fill="#3A3A3A"/>
</g>
<defs>
<clipPath id="clip0">
<rect width="48" height="60" fill="white"/>
</clipPath>
</defs>
</svg>
