<svg width="48" height="60" viewBox="0 0 48 60" fill="none" xmlns="http://www.w3.org/2000/svg">
<g clip-path="url(#clip0)">
<path d="M3.4424 7.23751L4.7399 6.48751L19.7399 32.5125C18.5755 33.3949 17.773 34.6718 17.483 36.1037C17.1931 37.5356 17.4355 39.0241 18.1649 40.29C18.9303 41.607 20.1679 42.5836 21.6267 43.0217C23.0855 43.4598 24.6564 43.3267 26.0207 42.6493C27.385 41.9719 28.4406 40.801 28.9734 39.374C29.5063 37.947 29.4764 36.3708 28.8899 34.965L41.2799 27.8175L42.9374 26.8575L44.6924 27.3225C44.7879 27.3486 44.8877 27.3554 44.9859 27.3427C45.0841 27.33 45.1788 27.298 45.2646 27.2485C45.3504 27.199 45.4255 27.133 45.4856 27.0543C45.5457 26.9756 45.5897 26.8858 45.6149 26.79C45.6652 26.5981 45.6374 26.394 45.5376 26.2225C45.4378 26.051 45.2741 25.9261 45.0824 25.875L43.0274 25.3275C42.9321 25.3019 42.8327 25.2954 42.7349 25.3082C42.6371 25.3211 42.5428 25.3531 42.4574 25.4025L41.1599 26.1525L40.0424 24.21L36.0524 17.31L32.1674 10.56L30.7499 7.95001C30.7003 7.8647 30.6343 7.79002 30.5558 7.73025C30.4772 7.67048 30.3876 7.62681 30.2922 7.60172C30.1967 7.57664 30.0973 7.57064 29.9995 7.58408C29.9017 7.59751 29.8075 7.63011 29.7224 7.68001L25.1774 10.2975L19.3349 13.6725L14.7974 16.2975C14.7113 16.3467 14.6358 16.4124 14.5753 16.491C14.5148 16.5695 14.4705 16.6592 14.4449 16.755C14.3953 16.9451 14.4222 17.1471 14.5199 17.3175L17.1449 21.87L22.5599 31.35C22.0437 31.4197 21.5392 31.5584 21.0599 31.7625L5.6699 5.08501C5.62027 4.9997 5.5543 4.92502 5.47576 4.86525C5.39722 4.80548 5.30765 4.76181 5.21219 4.73672C5.11674 4.71164 5.01727 4.70564 4.91949 4.71908C4.82171 4.73251 4.72755 4.76511 4.6424 4.81501L2.6924 5.94001C2.60277 5.9869 2.52355 6.05143 2.45951 6.12973C2.39546 6.20802 2.34792 6.29847 2.31974 6.39561C2.29156 6.49276 2.28331 6.5946 2.29551 6.69501C2.30771 6.79543 2.34009 6.89234 2.39071 6.97991C2.44133 7.06748 2.50915 7.14391 2.59007 7.2046C2.67099 7.26529 2.76336 7.30898 2.86161 7.33304C2.95985 7.35711 3.06195 7.36105 3.16176 7.34463C3.26157 7.32822 3.35703 7.29178 3.4424 7.23751ZM25.6424 41.1825C24.6098 41.7782 23.383 41.9398 22.2314 41.6318C21.0798 41.3239 20.0974 40.5716 19.4999 39.54C19.2038 39.0284 19.0114 38.4634 18.9337 37.8774C18.8559 37.2914 18.8945 36.6958 19.047 36.1247C19.1995 35.5536 19.4631 35.0181 19.8226 34.5489C20.1822 34.0797 20.6306 33.6859 21.1424 33.39C22.1741 32.7937 23.4002 32.631 24.5517 32.9375C25.7032 33.244 26.6862 33.9947 27.2849 35.025C27.5822 35.537 27.7755 36.1025 27.8539 36.6893C27.9322 37.2761 27.894 37.8726 27.7414 38.4446C27.5888 39.0166 27.3249 39.5529 26.9647 40.0227C26.6045 40.4925 26.1552 40.8867 25.6424 41.1825ZM28.1699 33.6825C27.3691 32.6165 26.2333 31.8505 24.9449 31.5075C24.7349 31.455 24.5174 31.41 24.3074 31.3725L18.5549 21.3975L17.6474 19.8225L20.8874 17.9475L22.7624 21.195C22.8116 21.2811 22.8773 21.3566 22.9559 21.4171C23.0344 21.4776 23.1241 21.5219 23.2199 21.5475C23.2847 21.5553 23.3501 21.5553 23.4149 21.5475C23.5463 21.5484 23.6756 21.5148 23.7899 21.45L29.6324 18.075C29.7183 18.026 29.7937 17.9605 29.8542 17.8822C29.9148 17.804 29.9592 17.7145 29.985 17.619C30.0108 17.5235 30.0174 17.4238 30.0045 17.3258C29.9916 17.2277 29.9595 17.1331 29.9099 17.0475L28.0349 13.8L31.2824 11.925L35.0324 18.4425L39.8924 26.865L28.1699 33.6825ZM25.2374 12L25.9874 13.2975L21.4349 15.9225L20.6849 14.625L25.2374 12ZM26.7374 14.595L28.2374 17.1975L23.6849 19.8225L22.1849 17.22L26.7374 14.595ZM29.7824 9.34501L30.5324 10.6425L27.2849 12.5175L26.5349 11.22L29.7824 9.34501ZM19.3874 15.345L20.1374 16.6425L16.8899 18.5175L16.1399 17.22L19.3874 15.345Z" fill="#3A3A3A"/>
</g>
<defs>
<clipPath id="clip0">
<rect width="48" height="60" fill="white"/>
</clipPath>
</defs>
</svg>
