<svg width="48" height="60" viewBox="0 0 48 60" fill="none" xmlns="http://www.w3.org/2000/svg">
<g clip-path="url(#clip0)">
<path d="M23.5802 45.6225C23.7042 45.7063 23.8505 45.7511 24.0002 45.7511C24.1499 45.7511 24.2962 45.7063 24.4202 45.6225C42.4877 33.315 43.5002 18.135 43.5002 17.4975C43.5041 17.3231 43.447 17.1528 43.3389 17.0159C43.2307 16.879 43.0783 16.7841 42.9077 16.7475C36.6302 15.3825 37.2152 8.6625 37.2452 8.3775C37.2611 8.22533 37.2302 8.07193 37.1564 7.93787C37.0827 7.80381 36.9697 7.69551 36.8327 7.6275L27.6227 3.1275C26.4968 2.56905 25.257 2.27847 24.0002 2.27847C22.7434 2.27847 21.5036 2.56905 20.3777 3.1275L11.1677 7.6275C11.0306 7.69551 10.9177 7.80381 10.8439 7.93787C10.7702 8.07193 10.7392 8.22533 10.7552 8.3775C10.7552 8.6625 11.3927 15.375 5.09269 16.7475C4.92211 16.7841 4.76963 16.879 4.66149 17.0159C4.55335 17.1528 4.4963 17.3231 4.50019 17.4975C4.50019 18.135 5.51269 33.315 23.5802 45.6225ZM12.2702 8.7375L21.0377 4.44C21.959 3.98499 22.9727 3.74831 24.0002 3.74831C25.0277 3.74831 26.0414 3.98499 26.9627 4.44L35.7302 8.7375C35.7302 10.5375 36.0977 16.3575 41.9402 18.03C41.5502 20.925 39.0452 33.6375 24.0002 44.0925C8.95519 33.6375 6.45019 20.925 6.06019 18C11.9027 16.3575 12.2927 10.5375 12.2702 8.7375Z" fill="#3A3A3A"/>
<path d="M18.75 16.5V25.5C18.75 25.6989 18.829 25.8897 18.9697 26.0303C19.1103 26.171 19.3011 26.25 19.5 26.25H30.75C30.9489 26.25 31.1397 26.171 31.2803 26.0303C31.421 25.8897 31.5 25.6989 31.5 25.5V20.6775C31.5006 20.4886 31.4299 20.3064 31.302 20.1673C31.174 20.0283 30.9983 19.9426 30.81 19.9275L20.25 19.0275V15.75C20.25 15.5511 20.171 15.3603 20.0303 15.2197C19.8897 15.079 19.6989 15 19.5 15H17.25C17.0511 15 16.8603 15.079 16.7197 15.2197C16.579 15.3603 16.5 15.5511 16.5 15.75C16.5 15.9489 16.579 16.1397 16.7197 16.2803C16.8603 16.421 17.0511 16.5 17.25 16.5H18.75ZM30 21.3675V24.75H20.25V20.535L30 21.3675Z" fill="#3A3A3A"/>
<path d="M21 27C20.555 27 20.12 27.132 19.75 27.3792C19.38 27.6264 19.0916 27.9778 18.9213 28.389C18.751 28.8001 18.7064 29.2525 18.7932 29.689C18.8801 30.1254 19.0943 30.5263 19.409 30.841C19.7237 31.1557 20.1246 31.3699 20.561 31.4568C20.9975 31.5436 21.4499 31.499 21.861 31.3287C22.2722 31.1584 22.6236 30.87 22.8708 30.5C23.118 30.13 23.25 29.695 23.25 29.25C23.25 28.6533 23.0129 28.081 22.591 27.659C22.169 27.2371 21.5967 27 21 27ZM21 30C20.8517 30 20.7067 29.956 20.5833 29.8736C20.46 29.7912 20.3639 29.6741 20.3071 29.537C20.2503 29.4 20.2355 29.2492 20.2644 29.1037C20.2934 28.9582 20.3648 28.8246 20.4697 28.7197C20.5746 28.6148 20.7082 28.5433 20.8537 28.5144C20.9992 28.4855 21.15 28.5003 21.287 28.5571C21.4241 28.6139 21.5412 28.71 21.6236 28.8333C21.706 28.9567 21.75 29.1017 21.75 29.25C21.75 29.4489 21.671 29.6397 21.5303 29.7803C21.3897 29.921 21.1989 30 21 30Z" fill="#3A3A3A"/>
<path d="M29.25 27C28.805 27 28.37 27.132 28 27.3792C27.63 27.6264 27.3416 27.9778 27.1713 28.389C27.001 28.8001 26.9564 29.2525 27.0432 29.689C27.1301 30.1254 27.3443 30.5263 27.659 30.841C27.9737 31.1557 28.3746 31.3699 28.811 31.4568C29.2475 31.5436 29.6999 31.499 30.111 31.3287C30.5222 31.1584 30.8736 30.87 31.1208 30.5C31.368 30.13 31.5 29.695 31.5 29.25C31.5 28.6533 31.2629 28.081 30.841 27.659C30.419 27.2371 29.8467 27 29.25 27ZM29.25 30C29.1017 30 28.9567 29.956 28.8333 29.8736C28.71 29.7912 28.6139 29.6741 28.5571 29.537C28.5003 29.4 28.4855 29.2492 28.5144 29.1037C28.5434 28.9582 28.6148 28.8246 28.7197 28.7197C28.8246 28.6148 28.9582 28.5433 29.1037 28.5144C29.2492 28.4855 29.4 28.5003 29.537 28.5571C29.6741 28.6139 29.7912 28.71 29.8736 28.8333C29.956 28.9567 30 29.1017 30 29.25C30 29.4489 29.921 29.6397 29.7803 29.7803C29.6397 29.921 29.4489 30 29.25 30Z" fill="#3A3A3A"/>
</g>
<defs>
<clipPath id="clip0">
<rect width="48" height="60" fill="white"/>
</clipPath>
</defs>
</svg>
